# xmcd CD database file
#
# Track frame offsets:
#	150
#	18375
#	39230
#	58065
#
# Disc length: 1107 seconds
#
# Revision: 0
# Processed by: cddbd v1.5.1PL0 Copyright (c) Steve Scherf et al.
# Submitted via: CDex 1.51
#
DISCID=29045104
DTITLE=Volfeed - Majesty
DYEAR=1900
DGENRE=Hard Rock
TTITLE0=Dreamslave
TTITLE1=Get Ready For Your Life
TTITLE2=Anything In Your Heart
TTITLE3=Liar
EXTD=
EXTT0=
EXTT1=
EXTT2=
EXTT3=
PLAYORDER=
